<?xml version="1.0" encoding="UTF-8"?>
<svg id="Calque_1" data-name="Calque 1" xmlns="http://www.w3.org/2000/svg" viewBox="0 0 500 500">
  <defs>
    <style>
      .cls-1 {
        fill: #ff6139;
        stroke-width: 0px;
      }
    </style>
  </defs>
  <path class="cls-1" d="M370.15,141.14c16.49.13,34.22-6.91,48.19-20.68,13.99-13.78,21.25-31.42,21.35-47.93-16.52-.12-34.22,6.91-48.19,20.68-14,13.8-21.28,31.42-21.35,47.93Z"/>
  <path class="cls-1" d="M337.59,87.55c-.09,15.12,5.53,28.66,14.46,37.68,9.05-8.88,14.88-22.38,14.97-37.47.13-15.11-5.51-28.65-14.45-37.69-9.04,8.91-14.88,22.38-14.98,37.48Z"/>
  <path class="cls-1" d="M252.35,125.24l-142.22,218.49c-.12.21-.24.43-.38.64l-12.45,19.09-2.72,4.16-2.07,3.18-28.69,43.93c-5.55,8.49-4.4,19.87,2.69,27.07l1.7,1.69c7.1,7.23,18.46,8.52,27.02,3.11l118.01-74.72c1.42-.89,1.82-2.75.93-4.17l-11.46-18.15c-1.88-2.97,1.93-6.2,4.54-3.87l18.07,15.96c1.01.89,2.48,1.01,3.61.3l114.85-72.73c1.41-.9,1.82-2.75.92-4.15l-33.91-53.63c-1.85-2.94,1.94-6.19,4.57-3.88l50.83,44.9c1.01.89,2.48,1.01,3.6.27l22.42-14.17c.87-.71,1.7-1.47,2.5-2.28,16.81-16.56,16.99-43.61.43-60.39l-76.47-77.54c-14.37-14.59-36.71-16.63-53.33-6.04l22.45,26.17c2.28,2.65-.99,6.4-3.94,4.49l-29.56-19.28c-.39.07-.65.12-1.04.21l-.91,1.34Z"/>
</svg>