<?xml version="1.0" encoding="UTF-8"?>
<svg id="Calque_1" data-name="Calque 1" xmlns="http://www.w3.org/2000/svg" viewBox="0 0 500 500">
  <defs>
    <style>
      .cls-1 {
        fill: #ff6139;
        stroke-width: 0px;
      }
    </style>
  </defs>
  <path class="cls-1" d="M432.1,80.02c-1.93,12.83-8.51,25.43-18.67,35.45-10.16,10.01-22.86,16.41-35.7,18.17,1.92-12.81,8.5-25.41,18.68-35.45,10.15-10,22.85-16.41,35.69-18.17M439.28,72.53c-16.4,0-33.92,7.03-47.78,20.68-14,13.8-21.28,31.42-21.35,47.93.14,0,.29,0,.43,0,16.37,0,33.91-7.03,47.76-20.68,13.99-13.78,21.25-31.42,21.35-47.93-.14,0-.28,0-.42,0h0Z"/>
  <path class="cls-1" d="M352.5,61.07c4.92,7.48,7.6,16.83,7.52,26.65-.06,9.82-2.88,19.13-7.89,26.52-4.9-7.45-7.59-16.81-7.53-26.64.07-9.81,2.89-19.12,7.91-26.53M352.57,50.07c-9.04,8.91-14.88,22.38-14.98,37.48-.09,15.12,5.53,28.66,14.46,37.68,9.05-8.88,14.88-22.38,14.97-37.47.13-15.11-5.51-28.65-14.45-37.69h0Z"/>
  <path class="cls-1" d="M288.29,112.64c9.64,0,18.66,3.77,25.4,10.62l76.47,77.54c6.7,6.79,10.35,15.78,10.28,25.32-.07,9.54-3.85,18.48-10.64,25.18l-.03.03-.03.03c-.53.54-1.09,1.05-1.65,1.53l-19.51,12.33-48.59-42.92c-1.85-1.63-4.2-2.53-6.6-2.53-3.67,0-7.06,2.02-8.85,5.27-1.77,3.21-1.64,7,.34,10.13l31.78,50.27-108.94,68.98-15.82-13.96c-1.86-1.65-4.22-2.57-6.64-2.57-3.66,0-7.04,2.01-8.82,5.25-1.77,3.21-1.64,7.01.35,10.16l9.34,14.79-114.65,72.59c-2.32,1.47-5.02,2.24-7.81,2.24-3.95,0-7.77-1.58-10.48-4.34l-.02-.02-.02-.02-1.67-1.67c-4.79-4.88-5.55-12.58-1.8-18.31l28.69-43.94,2.06-3.16,2.72-4.17,12.44-19.07c.2-.3.37-.59.52-.85l139.57-214.41,24.36,15.89c1.67,1.08,3.57,1.65,5.49,1.65,3.89,0,7.47-2.32,9.12-5.91,1.64-3.57,1.04-7.66-1.54-10.66l-16.56-19.31c3.75-1.3,7.71-1.97,11.74-1.97h0M288.29,105.64c-7.98,0-15.96,2.22-22.94,6.67l22.45,26.17c1.85,2.15.05,5.01-2.26,5.01-.55,0-1.12-.16-1.68-.52l-29.56-19.28c-.39.07-.65.12-1.04.21l-.91,1.34-142.22,218.49c-.12.21-.24.43-.38.64l-12.45,19.09-2.72,4.16-2.07,3.18-28.69,43.93c-5.55,8.49-4.4,19.87,2.69,27.07l1.7,1.69c4.16,4.24,9.8,6.44,15.47,6.44,4,0,8.01-1.09,11.55-3.33l118.01-74.72c1.42-.89,1.82-2.75.93-4.17l-11.46-18.15c-1.43-2.26.43-4.67,2.55-4.67.67,0,1.36.24,1.99.79l18.07,15.96c.57.5,1.29.76,2.01.76.55,0,1.11-.15,1.6-.46l114.85-72.73c1.41-.9,1.82-2.75.92-4.15l-33.91-53.63c-1.41-2.24.46-4.66,2.59-4.66.66,0,1.35.23,1.98.78l50.83,44.9c.56.5,1.27.75,1.99.75.56,0,1.12-.16,1.62-.48l22.42-14.17c.87-.71,1.7-1.47,2.5-2.28,16.81-16.56,16.99-43.61.43-60.39l-76.47-77.54c-8.34-8.47-19.36-12.71-30.39-12.71h0Z"/>
</svg>